<svg width="200" height="140" viewBox="0 0 200 140" fill="none" xmlns="http://www.w3.org/2000/svg">
<rect x="4" y="11" width="192" height="117" rx="21" fill="url(#paint0_linear_1411_87)"/>
<path d="M61.0594 81.416C59.6864 81.416 58.9999 81.2057 58.9999 80.7852C58.9999 80.5749 59.105 80.3027 59.3153 79.9688L66.1249 69.3184L60.076 59.6514C59.8658 59.2679 59.7606 58.9896 59.7606 58.8164C59.7606 58.6309 59.9338 58.4824 60.2802 58.3711C60.6389 58.2474 61.1646 58.1855 61.8573 58.1855H63.2118C64.2756 58.1855 64.9312 58.3958 65.1786 58.8164L68.9452 64.958L72.8973 58.8164C73.0829 58.569 73.3303 58.402 73.6395 58.3154C73.9611 58.2288 74.3879 58.1855 74.9198 58.1855H76.2001C77.5855 58.1855 78.2782 58.3958 78.2782 58.8164C78.2782 59.0514 78.1731 59.3298 77.9628 59.6514L71.7284 69.3926L78.3153 79.9688C78.5132 80.278 78.6122 80.5501 78.6122 80.7852C78.6122 81.2057 77.9195 81.416 76.5341 81.416H75.2538C74.7219 81.416 74.2951 81.3727 73.9735 81.2861C73.6519 81.1995 73.4231 81.0326 73.287 80.7852L68.8895 73.6973L64.3251 80.7852C64.1519 81.0697 63.9169 81.249 63.62 81.3232C63.3355 81.3851 62.9025 81.416 62.3212 81.416H61.0594Z" fill="#FAFAFA"/>
<path d="M85.9287 81.3604C85.471 81.3604 85.137 81.2552 84.9267 81.0449C84.7164 80.8346 84.6113 80.5007 84.6113 80.043V59.2617C84.6113 58.903 84.7721 58.637 85.0937 58.4639C85.4153 58.2783 85.9163 58.1855 86.5966 58.1855H87.7099C88.3903 58.1855 88.8912 58.2783 89.2128 58.4639C89.5345 58.637 89.6953 58.903 89.6953 59.2617V77.0371H97.0429C97.3893 77.0371 97.6367 77.167 97.7851 77.4268C97.9459 77.6865 98.0263 78.1009 98.0263 78.6699V79.709C98.0263 80.2904 97.9459 80.7109 97.7851 80.9707C97.6367 81.2305 97.3893 81.3604 97.0429 81.3604H85.9287Z" fill="#FAFAFA"/>
<path d="M110.186 81.6387C108.627 81.6387 107.254 81.484 106.066 81.1748C104.891 80.8532 103.988 80.4635 103.357 80.0059C102.739 79.5482 102.43 79.1152 102.43 78.707C102.43 78.3854 102.547 77.9896 102.782 77.5195C103.03 77.0495 103.32 76.6475 103.654 76.3135C103.988 75.9671 104.267 75.7939 104.489 75.7939C104.625 75.7939 104.916 75.9115 105.361 76.1465C106.029 76.4928 106.66 76.7712 107.254 76.9814C107.86 77.1917 108.553 77.2969 109.332 77.2969C110.198 77.2969 110.928 77.1299 111.522 76.7959C112.128 76.4495 112.431 75.8496 112.431 74.9961C112.431 74.5013 112.276 74.0745 111.967 73.7158C111.658 73.3571 111.262 73.054 110.779 72.8066C110.297 72.5592 109.641 72.2686 108.813 71.9346L107.347 71.3037C106.456 70.8708 105.689 70.3945 105.046 69.875C104.415 69.3555 103.896 68.6689 103.487 67.8154C103.092 66.9619 102.894 65.9167 102.894 64.6797C102.894 63.1706 103.265 61.915 104.007 60.9131C104.749 59.9111 105.714 59.1751 106.901 58.7051C108.089 58.235 109.363 58 110.724 58C111.837 58 112.845 58.1175 113.748 58.3525C114.651 58.5752 115.356 58.8659 115.863 59.2246C116.383 59.5833 116.643 59.9421 116.643 60.3008C116.643 60.5977 116.544 60.9811 116.346 61.4512C116.16 61.9089 115.925 62.3109 115.641 62.6572C115.356 63.0036 115.09 63.1768 114.843 63.1768C114.731 63.1768 114.534 63.1149 114.249 62.9912C113.791 62.8057 113.328 62.6572 112.857 62.5459C112.4 62.4222 111.837 62.3604 111.169 62.3604C110.019 62.3604 109.221 62.5459 108.775 62.917C108.33 63.2757 108.107 63.7025 108.107 64.1973C108.107 64.7663 108.256 65.2425 108.553 65.626C108.862 66.0094 109.245 66.3249 109.703 66.5723C110.173 66.8197 110.823 67.1042 111.651 67.4258C112.901 67.9577 113.921 68.4648 114.713 68.9473C115.505 69.4173 116.185 70.0977 116.754 70.9883C117.335 71.8789 117.626 73.0169 117.626 74.4023C117.626 76.097 117.267 77.4886 116.55 78.5771C115.845 79.6533 114.929 80.4326 113.804 80.915C112.69 81.3975 111.484 81.6387 110.186 81.6387Z" fill="#FAFAFA"/>
<path d="M123.978 81.416C122.605 81.416 121.918 81.2057 121.918 80.7852C121.918 80.5749 122.023 80.3027 122.234 79.9688L129.043 69.3184L122.994 59.6514C122.784 59.2679 122.679 58.9896 122.679 58.8164C122.679 58.6309 122.852 58.4824 123.198 58.3711C123.557 58.2474 124.083 58.1855 124.776 58.1855H126.13C127.194 58.1855 127.849 58.3958 128.097 58.8164L131.863 64.958L135.816 58.8164C136.001 58.569 136.248 58.402 136.558 58.3154C136.879 58.2288 137.306 58.1855 137.838 58.1855H139.118C140.504 58.1855 141.196 58.3958 141.196 58.8164C141.196 59.0514 141.091 59.3298 140.881 59.6514L134.647 69.3926L141.234 79.9688C141.431 80.278 141.53 80.5501 141.53 80.7852C141.53 81.2057 140.838 81.416 139.452 81.416H138.172C137.64 81.416 137.213 81.3727 136.892 81.2861C136.57 81.1995 136.341 81.0326 136.205 80.7852L131.808 73.6973L127.243 80.7852C127.07 81.0697 126.835 81.249 126.538 81.3232C126.254 81.3851 125.821 81.416 125.239 81.416H123.978Z" fill="#FAFAFA"/>
<path d="M15 33C15 26.9249 19.9249 22 26 22H43C44.1046 22 45 22.8954 45 24V40C45 41.1046 44.1046 42 43 42H17C15.8954 42 15 41.1046 15 40V33Z" fill="#FAFAFA" fill-opacity="0.9"/>
<rect x="50" y="22" width="30" height="20" rx="2" fill="white" fill-opacity="0.6"/>
<rect x="85" y="22" width="30" height="20" rx="2" fill="#FAFAFA" fill-opacity="0.9"/>
<rect x="120" y="22" width="30" height="20" rx="2" fill="white" fill-opacity="0.6"/>
<path d="M155 24C155 22.8954 155.895 22 157 22H174C180.075 22 185 26.9249 185 33V40C185 41.1046 184.105 42 183 42H157C155.895 42 155 41.1046 155 40V24Z" fill="white" fill-opacity="0.6"/>
<rect x="15" y="47" width="30" height="20" rx="2" fill="white" fill-opacity="0.6"/>
<rect x="155" y="47" width="30" height="20" rx="2" fill="white" fill-opacity="0.6"/>
<rect x="15" y="72" width="30" height="20" rx="2" fill="white" fill-opacity="0.6"/>
<rect x="155" y="72" width="30" height="20" rx="2" fill="#FAFAFA" fill-opacity="0.9"/>
<path d="M15 99C15 97.8954 15.8954 97 17 97H43C44.1046 97 45 97.8954 45 99V115C45 116.105 44.1046 117 43 117H26C19.9249 117 15 112.075 15 106V99Z" fill="white" fill-opacity="0.6"/>
<rect x="50" y="97" width="30" height="20" rx="2" fill="white" fill-opacity="0.6"/>
<rect x="85" y="97" width="30" height="20" rx="2" fill="white" fill-opacity="0.6"/>
<rect x="120" y="97" width="30" height="20" rx="2" fill="#FAFAFA" fill-opacity="0.9"/>
<path d="M155 99C155 97.8954 155.895 97 157 97H183C184.105 97 185 97.8954 185 99V106C185 112.075 180.075 117 174 117H157C155.895 117 155 116.105 155 115V99Z" fill="white" fill-opacity="0.6"/>
<defs>
<linearGradient id="paint0_linear_1411_87" x1="100" y1="11" x2="100" y2="128" gradientUnits="userSpaceOnUse">
<stop stop-color="#00C568"/>
<stop offset="1" stop-color="#00A156"/>
</linearGradient>
</defs>
</svg>
