<svg width="200" height="140" viewBox="0 0 200 140" fill="none" xmlns="http://www.w3.org/2000/svg">
<rect x="4" y="11" width="192" height="117" rx="21" fill="url(#paint0_linear_1411_89)"/>
<path d="M79.8545 81.6387C76.1436 81.6387 73.4036 80.6738 71.6348 78.7441C69.8783 76.8145 69 73.8148 69 69.7451C69 61.915 72.6738 58 80.0215 58C81.0234 58 82.0625 58.099 83.1387 58.2969C84.2148 58.4948 85.1117 58.7731 85.8291 59.1318C86.5589 59.4782 86.9238 59.8678 86.9238 60.3008C86.9238 60.61 86.8001 61.0182 86.5527 61.5254C86.3053 62.0202 86.0085 62.4593 85.6621 62.8428C85.3281 63.2262 85.0312 63.418 84.7715 63.418C84.7096 63.418 84.5426 63.3561 84.2705 63.2324C83.6768 62.985 83.0521 62.7809 82.3965 62.6201C81.7533 62.4469 80.9307 62.3604 79.9287 62.3604C77.9867 62.3604 76.5456 62.9788 75.6055 64.2158C74.6777 65.4404 74.2139 67.2959 74.2139 69.7822C74.2139 72.2686 74.6839 74.1426 75.624 75.4043C76.5641 76.666 77.9743 77.2969 79.8545 77.2969C80.8317 77.2969 81.679 77.1979 82.3965 77C83.1263 76.8021 83.8376 76.5485 84.5303 76.2393C84.5674 76.2269 84.6787 76.1836 84.8643 76.1094C85.0498 76.0228 85.1859 75.9795 85.2725 75.9795C85.5941 75.9795 85.9033 76.1712 86.2002 76.5547C86.4971 76.9258 86.7383 77.3525 86.9238 77.835C87.1094 78.305 87.2021 78.6452 87.2021 78.8555C87.2021 79.4616 86.7939 79.9749 85.9775 80.3955C85.1735 80.8161 84.1963 81.1315 83.0459 81.3418C81.9079 81.5397 80.8441 81.6387 79.8545 81.6387Z" fill="#FAFAFA"/>
<path d="M99.8624 81.6387C98.3038 81.6387 96.9307 81.484 95.7432 81.1748C94.5681 80.8532 93.6651 80.4635 93.0343 80.0059C92.4158 79.5482 92.1065 79.1152 92.1065 78.707C92.1065 78.3854 92.224 77.9896 92.4591 77.5195C92.7065 77.0495 92.9971 76.6475 93.3311 76.3135C93.6651 75.9671 93.9434 75.7939 94.1661 75.7939C94.3022 75.7939 94.5929 75.9115 95.0382 76.1465C95.7061 76.4928 96.337 76.7712 96.9307 76.9814C97.5369 77.1917 98.2296 77.2969 99.0089 77.2969C99.8748 77.2969 100.605 77.1299 101.198 76.7959C101.804 76.4495 102.107 75.8496 102.107 74.9961C102.107 74.5013 101.953 74.0745 101.644 73.7158C101.334 73.3571 100.939 73.054 100.456 72.8066C99.9737 72.5592 99.3181 72.2686 98.4893 71.9346L97.0235 71.3037C96.1329 70.8708 95.366 70.3945 94.7227 69.875C94.0919 69.3555 93.5723 68.6689 93.1641 67.8154C92.7683 66.9619 92.5704 65.9167 92.5704 64.6797C92.5704 63.1706 92.9415 61.915 93.6837 60.9131C94.4259 59.9111 95.3907 59.1751 96.5782 58.7051C97.7657 58.235 99.0398 58 100.4 58C101.514 58 102.522 58.1175 103.425 58.3525C104.328 58.5752 105.033 58.8659 105.54 59.2246C106.06 59.5833 106.319 59.9421 106.319 60.3008C106.319 60.5977 106.22 60.9811 106.023 61.4512C105.837 61.9089 105.602 62.3109 105.317 62.6572C105.033 63.0036 104.767 63.1768 104.52 63.1768C104.408 63.1768 104.21 63.1149 103.926 62.9912C103.468 62.8057 103.004 62.6572 102.534 62.5459C102.077 62.4222 101.514 62.3604 100.846 62.3604C99.6954 62.3604 98.8975 62.5459 98.4522 62.917C98.0069 63.2757 97.7843 63.7025 97.7843 64.1973C97.7843 64.7663 97.9327 65.2425 98.2296 65.626C98.5388 66.0094 98.9223 66.3249 99.38 66.5723C99.85 66.8197 100.499 67.1042 101.328 67.4258C102.578 67.9577 103.598 68.4648 104.39 68.9473C105.181 69.4173 105.862 70.0977 106.431 70.9883C107.012 71.8789 107.303 73.0169 107.303 74.4023C107.303 76.097 106.944 77.4886 106.227 78.5771C105.522 79.6533 104.606 80.4326 103.481 80.915C102.367 81.3975 101.161 81.6387 99.8624 81.6387Z" fill="#FAFAFA"/>
<path d="M120.594 81.416C120.062 81.416 119.641 81.3665 119.332 81.2676C119.023 81.1562 118.831 80.9769 118.757 80.7295L111.632 59.5215C111.533 59.2246 111.484 59.0267 111.484 58.9277C111.484 58.4329 112.158 58.1855 113.506 58.1855H114.582C115.683 58.1855 116.333 58.5133 116.53 59.1689L120.984 73.4375L121.355 74.5879H121.485L121.856 73.4375L126.42 59.1689C126.643 58.5133 127.298 58.1855 128.387 58.1855H129.389C130.712 58.1855 131.374 58.4329 131.374 58.9277C131.374 59.1504 131.337 59.3483 131.263 59.5215L124.138 80.7295C124.064 80.9769 123.866 81.1562 123.544 81.2676C123.235 81.3665 122.82 81.416 122.301 81.416H120.594Z" fill="#FAFAFA"/>
<path d="M15 33C15 26.9249 19.9249 22 26 22H43C44.1046 22 45 22.8954 45 24V40C45 41.1046 44.1046 42 43 42H17C15.8954 42 15 41.1046 15 40V33Z" fill="white" fill-opacity="0.6"/>
<rect x="50" y="22" width="30" height="20" rx="2" fill="white" fill-opacity="0.6"/>
<rect x="85" y="22" width="30" height="20" rx="2" fill="white" fill-opacity="0.6"/>
<rect x="120" y="22" width="30" height="20" rx="2" fill="white" fill-opacity="0.6"/>
<path d="M155 24C155 22.8954 155.895 22 157 22H174C180.075 22 185 26.9249 185 33V40C185 41.1046 184.105 42 183 42H157C155.895 42 155 41.1046 155 40V24Z" fill="white" fill-opacity="0.6"/>
<rect x="15" y="47" width="30" height="20" rx="2" fill="#FAFAFA" fill-opacity="0.9"/>
<rect x="155" y="47" width="30" height="20" rx="2" fill="white" fill-opacity="0.6"/>
<rect x="15" y="72" width="30" height="20" rx="2" fill="white" fill-opacity="0.6"/>
<rect x="155" y="72" width="30" height="20" rx="2" fill="white" fill-opacity="0.6"/>
<path d="M15 99C15 97.8954 15.8954 97 17 97H43C44.1046 97 45 97.8954 45 99V115C45 116.105 44.1046 117 43 117H26C19.9249 117 15 112.075 15 106V99Z" fill="#FAFAFA" fill-opacity="0.9"/>
<rect x="50" y="97" width="30" height="20" rx="2" fill="white" fill-opacity="0.6"/>
<rect x="85" y="97" width="30" height="20" rx="2" fill="white" fill-opacity="0.6"/>
<rect x="120" y="97" width="30" height="20" rx="2" fill="#FAFAFA" fill-opacity="0.9"/>
<path d="M155 99C155 97.8954 155.895 97 157 97H183C184.105 97 185 97.8954 185 99V106C185 112.075 180.075 117 174 117H157C155.895 117 155 116.105 155 115V99Z" fill="white" fill-opacity="0.6"/>
<defs>
<linearGradient id="paint0_linear_1411_89" x1="100" y1="11" x2="100" y2="128" gradientUnits="userSpaceOnUse">
<stop stop-color="#00C568"/>
<stop offset="1" stop-color="#00A156"/>
</linearGradient>
</defs>
</svg>
